# Object "object01":
# ComRec:
g cube01
# No. points 8:
v -52.183 -19.8545 -56.7568
v -52.183 -19.8545 56.7568
v -52.183 20.4782 -56.7568
v -52.183 20.4782 56.7568
v 61.3306 -19.8545 -56.7568
v 61.3306 -19.8545 56.7568
v 61.3306 20.4782 -56.7568
v 61.3306 20.4782 56.7568

# No. normals 30:
vn 0 0 -1
vn 0 0 1
vn -1 0 0
vn 1 0 0
vn 0 1 0
vn 0 -1 0
vn 0 0 -1
vn 0 -1 0
vn -1 0 0
vn 0 0 1
vn 0 -1 0
vn -1 0 0
vn 0 0 -1
vn 0 1 0
vn -1 0 0
vn 0 0 1
vn 0 1 0
vn -1 0 0
vn 0 0 -1
vn 0 -1 0
vn 1 0 0
vn 0 0 1
vn 0 -1 0
vn 1 0 0
vn 0 0 -1
vn 0 1 0
vn 1 0 0
vn 0 0 1
vn 0 1 0
vn 1 0 0

# No. texture coordinates 8:
vt 0 0
vt 0 0
vt 0 1
vt 0 1
vt 1 0
vt 1 0
vt 1 1
vt 1 1

# No. faces 6:
f 3/3/13 7/7/25 5/5/19 1/1/7
f 6/6/22 8/8/28 4/4/16 2/2/10
f 2/2/12 4/4/18 3/3/15 1/1/9
f 7/7/27 8/8/30 6/6/24 5/5/21
f 4/4/17 8/8/29 7/7/26 3/3/14
f 5/5/20 6/6/23 2/2/11 1/1/8


