# file generated by UVMapper
# NumVerts/NumTVerts/NumVNormals/NumFacets   8/24/30/6
# NumGroups/NumMaterials/NumRegions   1/0/0
# x/y/color/ppu   1024/602/0/50.00000000

v -52.18299866 -19.85449982 -56.75680161
v -52.18299866 -19.85449982  56.75680161
v -52.18299866  20.47820091 -56.75680161
v -52.18299866  20.47820091  56.75680161
v  61.33060074 -19.85449982 -56.75680161
v  61.33060074 -19.85449982  56.75680161
v  61.33060074  20.47820091 -56.75680161
v  61.33060074  20.47820091  56.75680161

vt  0.98000002  0.56788498
vt  0.75500005  0.56788498
vt  0.75500005  0.43211505
vt  0.98000002  0.43211505
vt  0.48999995  0.43211505
vt  0.48999995  0.56788498
vt  0.26499999  0.56788498
vt  0.26499999  0.43211505
vt  0.24499999  0.43211505
vt  0.24499999  0.56788498
vt  0.02000000  0.56788498
vt  0.02000000  0.43211505
vt  0.73500001  0.56788498
vt  0.50999999  0.56788498
vt  0.50999999  0.43211505
vt  0.73500001  0.43211505
vt  0.26499999  0.59288502
vt  0.48999995  0.59288502
vt  0.48999995  0.97500002
vt  0.26499999  0.97500002
vt  0.48999995  0.02500000
vt  0.48999995  0.40711504
vt  0.26499999  0.40711504
vt  0.26499999  0.02500000

vn  0.00000000  0.00000000 -1.00000000
vn  0.00000000  0.00000000  1.00000000
vn -1.00000000  0.00000000  0.00000000
vn  1.00000000  0.00000000  0.00000000
vn  0.00000000  1.00000000  0.00000000
vn  0.00000000 -1.00000000  0.00000000
vn  0.00000000  0.00000000 -1.00000000
vn  0.00000000 -1.00000000  0.00000000
vn -1.00000000  0.00000000  0.00000000
vn  0.00000000  0.00000000  1.00000000
vn  0.00000000 -1.00000000  0.00000000
vn -1.00000000  0.00000000  0.00000000
vn  0.00000000  0.00000000 -1.00000000
vn  0.00000000  1.00000000  0.00000000
vn -1.00000000  0.00000000  0.00000000
vn  0.00000000  0.00000000  1.00000000
vn  0.00000000  1.00000000  0.00000000
vn -1.00000000  0.00000000  0.00000000
vn  0.00000000  0.00000000 -1.00000000
vn  0.00000000 -1.00000000  0.00000000
vn  1.00000000  0.00000000  0.00000000
vn  0.00000000  0.00000000  1.00000000
vn  0.00000000 -1.00000000  0.00000000
vn  1.00000000  0.00000000  0.00000000
vn  0.00000000  0.00000000 -1.00000000
vn  0.00000000  1.00000000  0.00000000
vn  1.00000000  0.00000000  0.00000000
vn  0.00000000  0.00000000  1.00000000
vn  0.00000000  1.00000000  0.00000000
vn  1.00000000  0.00000000  0.00000000

g cube01
f 3/1/13 7/2/25 5/3/19 1/4/7
f 6/5/22 8/6/28 4/7/16 2/8/10
f 2/9/12 4/10/18 3/11/15 1/12/9
f 7/13/27 8/14/30 6/15/24 5/16/21
f 4/17/17 8/18/29 7/19/26 3/20/14
f 5/21/20 6/22/23 2/23/11 1/24/8
